<svg xmlns="http://www.w3.org/2000/svg" width="20" height="20" viewBox="0 0 24 24" fill="currentColor" aria-hidden="true"><path d="M12 .5C5.65.5.5 5.65.5 12c0 5.08 3.29 9.39 7.86 10.91.58.11.79-.25.79-.55 0-.27-.01-1.18-.02-2.13-3.2.7-3.88-1.36-3.88-1.36-.53-1.34-1.29-1.7-1.29-1.7-1.05-.72.08-.7.08-.7 1.17.08 1.78 1.2 1.78 1.2 1.04 1.78 2.72 1.27 3.39.97.1-.76.41-1.27.74-1.56-2.55-.29-5.24-1.28-5.24-5.7 0-1.26.45-2.28 1.18-3.09-.12-.29-.51-1.46.11-3.04 0 0 .97-.31 3.17 1.18a11 11 0 0 1 5.78 0c2.2-1.49 3.17-1.18 3.17-1.18.62 1.58.23 2.75.11 3.04.74.81 1.18 1.83 1.18 3.09 0 4.43-2.69 5.41-5.25 5.69.42.36.8 1.07.8 2.15 0 1.56-.01 2.81-.01 3.19 0 .31.21.67.8.55C20.21 21.39 23.5 17.08 23.5 12 23.5 5.65 18.35.5 12 .5z"/></svg>
